<svg width="194" height="31" viewBox="0 0 194 31" fill="none" xmlns="http://www.w3.org/2000/svg">
<path d="M39.7904 6.46618C39.3696 6.92348 38.9965 7.32224 38.6307 7.721C34.6137 12.1403 30.692 16.6548 26.536 20.9351C24.8166 22.7058 22.7057 24.1765 20.5655 25.4276C17.8181 27.0337 14.7304 27.608 11.5549 26.9129C5.92466 25.68 2.12725 19.9986 3.06746 14.3171C4.17229 7.6332 9.71109 3.08216 15.8938 3.70043C19.1131 4.02237 21.813 5.41256 24.2349 7.57833C24.9227 6.82104 25.5263 6.16253 26.2287 5.38695C25.9251 5.05404 25.7385 4.82356 25.5263 4.61869C20.818 0.0749655 13.5926 -0.722564 7.68069 2.65413C1.91873 5.93937 -0.86165 12.4586 0.696824 19.0181C2.49675 26.5873 9.88304 31.6725 17.284 30.3738C21.1911 29.686 24.4251 27.5495 27.114 24.835C32.2577 19.6437 37.1344 14.189 42.1866 8.77828L39.7904 6.46618Z" fill="white"></path>
<path d="M45.6016 11.8644L45.491 11.7575L45.3869 11.8708L32.1911 26.241L31.936 26.5189L32.3122 26.4921L36.5267 26.1921L36.5858 26.1879L36.6261 26.1444L47.7512 14.1449L47.8511 14.0372L47.7454 13.935L45.6016 11.8644Z" fill="#BE1E2D" stroke="white" stroke-width="0.3"></path>
<path d="M50.7526 16.8359L50.642 16.7291L50.5379 16.8423L42.7346 25.3371L42.4793 25.615L42.8557 25.5882L47.0702 25.2882L47.1293 25.284L47.1695 25.2405L52.873 19.0871L52.9729 18.9793L52.8671 18.8773L50.7526 16.8359Z" fill="#BE1E2D" stroke="white" stroke-width="0.3"></path>
<path d="M70.559 14.5618C67.671 14.5618 67.1439 12.2802 67.1439 9.85421C67.1439 6.51125 68.3424 4.80728 70.3424 4.80728C72.1186 4.80728 73.245 5.83977 73.4182 7.64482H78.8045C78.3496 3.19717 75.3894 0.576233 70.1042 0.576233C65.2738 0.576233 61.476 4.0636 61.476 9.65926C61.476 15.2838 64.9345 18.7928 70.6601 18.7928C75.2233 18.7928 78.4218 16.0997 78.9273 11.6304H73.4688C73.245 13.291 72.3858 14.5618 70.559 14.5618Z" fill="white"></path>
<path d="M96.9706 14.3235C96.9706 10.8362 95.8659 10.4029 94.0392 9.73869C96.0608 9.18273 96.9489 7.50042 96.9489 5.50764C96.9489 2.14302 95.05 0.576233 89.2811 0.576233H81.1078V17.8759H86.7829V11.847H88.5085C91.1511 11.847 91.5338 12.5907 91.5338 14.8506C91.5338 16.3885 91.6782 17.4932 91.8226 17.8759H97.5699V17.3488C96.9056 17.3488 96.9706 16.5834 96.9706 14.3235ZM89.0139 8.04916H86.7829V4.61233H89.4255C90.7468 4.61233 91.707 5.18995 91.707 6.41739C91.7143 7.61594 90.7684 8.04916 89.0139 8.04916Z" fill="white"></path>
<path d="M105.844 11.125H112.985V7.08887H105.844V4.61233H114.277V0.576233H100.169V17.8759H114.617V13.8398H105.844V11.125Z" fill="white"></path>
<path d="M122.162 0.576233L115.96 17.8831H121.512L122.162 15.6015H127.808L128.48 17.8831H134.126L127.924 0.576233H122.162ZM123.245 11.9914L124.999 5.78923L126.826 11.9914H123.245Z" fill="white"></path>
<path d="M132.784 5.11053V5.26053H132.934H137.882V17.8759V18.0259H138.032H143.7H143.85V17.8759V5.26053H148.797H148.947V5.11053V0.576233V0.426233H148.797H132.934H132.784V0.576233V5.11053Z" fill="#BE1E2D" stroke="white" stroke-width="0.3"></path>
<path d="M157.043 0.576233H151.368V17.8831H157.043V0.576233Z" fill="white"></path>
<path d="M168.169 12.0853L165.144 0.576233H159.425L165.332 17.8759H171.028L177.043 0.576233H171.324L168.169 12.0853Z" fill="white"></path>
<path d="M185.093 13.8398V11.125H192.234V7.08887H185.093V4.61233H193.534V0.576233H179.425V17.8759H193.866V13.8398H185.093Z" fill="white"></path>
<path d="M66.9562 29.096L63.9381 22.3452H62.7829V30.5112H63.8587V24.4101L66.5807 30.5112H67.3388L70.0464 24.4246V30.5112H71.1222V22.3452H69.9814L66.9562 29.096Z" fill="white"></path>
<path d="M82.6312 30.5113H87.05V29.6304H83.6998V26.7929H86.6962V25.912H83.6998V23.1611H87.05V22.273H82.6312V30.5113Z" fill="white"></path>
<path d="M103.88 24.7062C103.88 23.3632 102.963 22.2874 101.028 22.2874H98.3713V30.5112H99.4471V27.1466H100.747L102.703 30.5112H103.989L101.924 27.0672C103.303 26.7567 103.88 25.7603 103.88 24.7062ZM99.4471 26.2874V23.1755H101.028C102.256 23.1755 102.776 23.7748 102.776 24.7062C102.776 25.6231 102.241 26.2874 101.028 26.2874H99.4471Z" fill="white"></path>
<path d="M118.942 23.1249C120.147 23.1249 121.021 23.6809 121.469 24.67H122.754C122.14 23.0744 120.725 22.1791 118.942 22.1791C116.638 22.1791 114.833 23.9264 114.833 26.3885C114.833 28.8578 116.638 30.5762 118.942 30.5762C120.725 30.5762 122.14 29.6881 122.754 28.1069H121.469C121.021 29.0888 120.147 29.6376 118.942 29.6376C117.216 29.6376 115.931 28.3885 115.931 26.3812C115.931 24.374 117.216 23.1249 118.942 23.1249Z" fill="white"></path>
<path d="M139.295 25.8975H135.108V22.2874H134.032V30.5112H135.108V26.7856H139.295V30.5112H140.364V22.2874H139.295V25.8975Z" fill="white"></path>
<path d="M154.328 22.338L151.353 30.5112H152.487L153.144 28.6845H156.732L157.396 30.5112H158.53L155.57 22.338H154.328ZM153.454 27.8109L154.942 23.6592L156.429 27.8109H153.454Z" fill="white"></path>
<path d="M174.905 28.8145L170.588 22.273H169.512V30.5113H170.588V23.9625L174.905 30.5113H175.981V22.273H174.905V28.8145Z" fill="white"></path>
<path d="M186.992 22.2874V23.1611H189.245V30.5112H190.321V23.1611H192.559V22.2874H186.992Z" fill="white"></path>
</svg>